<svg viewBox="0 0 1329.04 529.32" xmlns="http://www.w3.org/2000/svg"><path d="m0 0h529.32v529.32h-529.32z" fill="#1d6875"/><g fill="#fff"><path d="m111.14 222v33.14h62.2v32h-62.2v62.43h-38.36v-160.73h105.78v33.16z"/><path d="m300.69 349.56-12.48-31.56h-62.21l-11.8 31.56h-42.2l67.4-160.72h37.68l66.74 160.72zm-43.13-117.81-20.43 55.16h40.41z"/><path d="m442.11 230.61a35.16 35.16 0 0 0 -13.05-10.1 36.81 36.81 0 0 0 -15.55-3.74 45.53 45.53 0 0 0 -7.83.68 20 20 0 0 0 -7.15 2.61 17.54 17.54 0 0 0 -5.34 5 13.27 13.27 0 0 0 -2.16 7.83 12.56 12.56 0 0 0 1.71 6.81 15.08 15.08 0 0 0 5 4.77 44 44 0 0 0 7.83 3.74q4.54 1.71 10.22 3.52 8.18 2.73 17 6a63.78 63.78 0 0 1 16.12 8.74 45.92 45.92 0 0 1 12.09 13.53q4.77 8.07 4.77 20.09 0 13.86-5.11 23.95a47.68 47.68 0 0 1 -13.73 16.69 59 59 0 0 1 -19.75 9.76 83.42 83.42 0 0 1 -22.93 3.18 94.72 94.72 0 0 1 -33.37-6 70.56 70.56 0 0 1 -26.78-17.14l25.42-25.88a46.72 46.72 0 0 0 15.48 12.11 42.22 42.22 0 0 0 19.18 4.88 38.33 38.33 0 0 0 8.4-.91 20.89 20.89 0 0 0 7.15-3 14.79 14.79 0 0 0 4.88-5.45 17.14 17.14 0 0 0 1.82-8.17 13 13 0 0 0 -2.27-7.72 22.24 22.24 0 0 0 -6.47-5.79 52.87 52.87 0 0 0 -10.44-4.76q-6.25-2.16-14.19-4.66a134.51 134.51 0 0 1 -15.1-5.9 50.39 50.39 0 0 1 -13.16-8.74 40.31 40.31 0 0 1 -9.31-12.94q-3.49-7.6-3.49-18.45 0-13.4 5.45-22.92a47.38 47.38 0 0 1 14.3-15.67 61.47 61.47 0 0 1 20-9 90.11 90.11 0 0 1 22.47-2.84 83.68 83.68 0 0 1 27.81 5 71.6 71.6 0 0 1 24.85 14.76z"/></g><path d="m675.46 55.43q-.54 6.14-.75 11.86t-.2 8.87c0 2.09 0 4 .14 5.79s.18 3.3.27 4.57h-3.14q-1.77-10.63-4.91-16.7a20.21 20.21 0 0 0 -7.7-8.66 21.6 21.6 0 0 0 -10.84-2.59h-4.5a19.87 19.87 0 0 0 -6 .68 4.06 4.06 0 0 0 -2.73 2.75 21.09 21.09 0 0 0 -.68 6.27v68.46a21.54 21.54 0 0 0 1.09 7.91 5.83 5.83 0 0 0 4.23 3.4 42.69 42.69 0 0 0 9.27 1v3q-4.23-.14-10.91-.27t-14.05-.14q-5.87 0-11.45.14l-10.09.27v-2.73a23.75 23.75 0 0 0 6.54-1.09 4.72 4.72 0 0 0 2.93-3.27 27 27 0 0 0 .75-7.37v-67.69a26.88 26.88 0 0 0 -.75-7.44 4.91 4.91 0 0 0 -3-3.27 20.23 20.23 0 0 0 -6.47-1v-2.75l16 .27q8.6.13 16.23.14h12.26c4.18 0 8.94 0 14.25-.07s10.03-.16 14.21-.34zm-20.31 47.18v2.73h-24.82v-2.73zm3.4-18q-.54 7.78-.47 11.87c0 2.72.07 5.23.07 7.5s0 4.77.13 7.5.32 6.68.68 11.86h-3.13a39 39 0 0 0 -2.59-8.86 16 16 0 0 0 -5.19-6.62 14.52 14.52 0 0 0 -8.86-2.52v-2.73a12.41 12.41 0 0 0 8.73-3 19.76 19.76 0 0 0 5-7.16 49.43 49.43 0 0 0 2.52-7.84z"/><path d="m713.92 79.57q12 0 18.82 7.09t6.81 23.18h-44.86l-.27-2.59h28a66 66 0 0 0 -.82-12.34 25.92 25.92 0 0 0 -3-9.07 6.16 6.16 0 0 0 -5.45-3.41q-4.77 0-8.12 6t-4 19.91l.41.82c-.09 1.09-.16 2.23-.2 3.41s-.07 2.41-.07 3.68c0 6.27.88 11.37 2.66 15.27a19.3 19.3 0 0 0 6.75 8.53 15.12 15.12 0 0 0 8.32 2.66 23.23 23.23 0 0 0 8.93-2.05q4.83-2 9.07-8.86l2.45.82a35.71 35.71 0 0 1 -5.18 10.09 28.55 28.55 0 0 1 -9 8 25.86 25.86 0 0 1 -13.17 3.18 33 33 0 0 1 -16.37-4 27.15 27.15 0 0 1 -11.11-12q-4-8-4-20.45 0-12.69 4.29-21.14a28.83 28.83 0 0 1 11.87-12.61 35.11 35.11 0 0 1 17.24-4.12z"/><path d="m779.78 79.57a26.57 26.57 0 0 1 10.57 2 14.84 14.84 0 0 1 7.16 6.62l-1.64 1.5a10.74 10.74 0 0 0 -4.7-4.71 14 14 0 0 0 -6.17-1.46q-6.94 0-11 8.12t-4 25a87 87 0 0 0 1.57 18.48q1.54 6.88 4.43 9.88a9.16 9.16 0 0 0 6.75 3 11.46 11.46 0 0 0 8.32-3.68c2.46-2.45 3.77-5.77 4-10l.68 4.77q-2.06 7.23-6.62 11t-11.93 3.75a26.62 26.62 0 0 1 -14.39-4q-6.33-3.94-9.88-12.2t-3.55-21.34q0-12.4 4-20.53a28 28 0 0 1 10.84-12.2 29.94 29.94 0 0 1 15.56-4zm34.78-34.37v91.8c0 4.09.63 7.11 1.91 9.07s3.53 2.93 6.82 2.93v2.86q-4.23-.41-8.46-.41-5.73 0-10.71.41a55.25 55.25 0 0 0 -9.2 1.5v-91.79c0-4.09-.61-7.12-1.84-9.07s-3.53-2.93-6.89-2.93v-2.87c2.91.28 5.73.41 8.46.41 3.72 0 7.27-.16 10.63-.48a71.66 71.66 0 0 0 9.28-1.43z"/><path d="m864.74 79.57q12 0 18.82 7.09t6.81 23.18h-44.86l-.27-2.59h28a66 66 0 0 0 -.82-12.34 25.92 25.92 0 0 0 -3-9.07 6.16 6.16 0 0 0 -5.45-3.41q-4.78 0-8.12 6t-4 19.91l.41.82c-.09 1.09-.16 2.23-.2 3.41s-.07 2.41-.07 3.68c0 6.27.88 11.37 2.66 15.27a19.3 19.3 0 0 0 6.75 8.53 15.12 15.12 0 0 0 8.32 2.66 23.23 23.23 0 0 0 8.93-2.05q4.83-2 9.07-8.86l2.45.82a35.71 35.71 0 0 1 -5.18 10.09 28.55 28.55 0 0 1 -9 8 25.86 25.86 0 0 1 -13.09 3.14 33 33 0 0 1 -16.37-4 27.1 27.1 0 0 1 -11.11-12q-4-8-4-20.45 0-12.69 4.29-21.14a28.83 28.83 0 0 1 11.87-12.61 35.11 35.11 0 0 1 17.16-4.08z"/><path d="m944.65 79.57a12.45 12.45 0 0 1 7.1 1.84 11.24 11.24 0 0 1 4 4.7 14.45 14.45 0 0 1 1.29 6 11.7 11.7 0 0 1 -2.93 8.25 9.93 9.93 0 0 1 -7.7 3.21c-3.19 0-5.66-.8-7.43-2.39a8.07 8.07 0 0 1 -2.66-6.34 11.06 11.06 0 0 1 1.68-6.34 16.28 16.28 0 0 1 4.3-4.3 6.17 6.17 0 0 0 -3.82.14 11.23 11.23 0 0 0 -6.34 3.34 20.82 20.82 0 0 0 -4.44 6.62 18.91 18.91 0 0 0 -1.63 7.5v36.13q0 6.56 3.2 8.87c2.14 1.55 5.34 2.32 9.62 2.32v2.88c-2.1-.09-5.14-.2-9.14-.34s-8.18-.21-12.55-.21c-3.63 0-7.32.07-11 .21s-6.55.25-8.46.34v-2.86c3.18 0 5.43-.69 6.75-2.05s2-3.95 2-7.77v-43q0-6.14-1.84-9.07c-1.23-2-3.52-2.93-6.89-2.93v-2.84q4.37.4 8.46.41c3.82 0 7.38-.16 10.7-.48a75.57 75.57 0 0 0 9.19-1.41v12.66a24.75 24.75 0 0 1 4.36-6.66 20.37 20.37 0 0 1 6.28-4.71 18.05 18.05 0 0 1 7.9-1.72z"/><path d="m979.43 152.94q-9.13 0-13.23-4.78a17.18 17.18 0 0 1 -4.09-11.59 16 16 0 0 1 2.66-9.55 21.27 21.27 0 0 1 6.88-6.06 51.24 51.24 0 0 1 8.94-4q4.7-1.56 9-3.14a26 26 0 0 0 6.95-3.61 6.25 6.25 0 0 0 2.66-5.18v-10.6a16.47 16.47 0 0 0 -1.2-6.34 9 9 0 0 0 -3.54-4.29 11.51 11.51 0 0 0 -6.21-1.51 20.42 20.42 0 0 0 -5.45.76 10 10 0 0 0 -4.5 2.52 12.44 12.44 0 0 1 5.93 4.16 10.23 10.23 0 0 1 2.11 6.34 9.18 9.18 0 0 1 -3.2 7.36 11.31 11.31 0 0 1 -7.57 2.73q-4.9 0-7.43-3.07a11.27 11.27 0 0 1 -2.53-7.43 10.48 10.48 0 0 1 2-6.55 22.29 22.29 0 0 1 5.52-4.91 33.84 33.84 0 0 1 9.21-3.41 53 53 0 0 1 11.66-1.22 45.81 45.81 0 0 1 11.32 1.29 18.11 18.11 0 0 1 8.45 4.71 14.93 14.93 0 0 1 4.09 7.7 57.55 57.55 0 0 1 1 11.53v37.09a11.09 11.09 0 0 0 .68 4.63 2.37 2.37 0 0 0 2.32 1.37 5.3 5.3 0 0 0 2.59-.68 13.56 13.56 0 0 0 2.32-1.64l1.36 2.32a20.21 20.21 0 0 1 -6.61 3.75 25.69 25.69 0 0 1 -8.39 1.3q-8.18 0-10.84-3.35a12.67 12.67 0 0 1 -2.8-7.7 22.55 22.55 0 0 1 -8.38 8.32 24 24 0 0 1 -11.68 2.73zm10.5-8.73a10 10 0 0 0 4.84-1.23 13.73 13.73 0 0 0 4.43-4.36v-28a13.67 13.67 0 0 1 -4.57 4.57c-2 1.23-4 2.54-6 4a18.16 18.16 0 0 0 -5.11 5.39 16.35 16.35 0 0 0 -2 8.73q0 5.87 2.46 8.38a8 8 0 0 0 5.95 2.52z"/><path d="m1059.75 59.11v22.37h16.09v2.72h-16.09v55.1c0 2.72.5 4.66 1.5 5.79a5.67 5.67 0 0 0 4.5 1.71 8.23 8.23 0 0 0 4.91-1.84 15.21 15.21 0 0 0 4.36-6.34l2.32 1.22a24.07 24.07 0 0 1 -6.61 10.09q-4.44 4-12.07 4a24.63 24.63 0 0 1 -7.91-1.16 14.27 14.27 0 0 1 -9.68-10.91 56.21 56.21 0 0 1 -1-11.52v-46.14h-11.45v-2.72h11.45v-18a50.61 50.61 0 0 0 10.57-1 32.68 32.68 0 0 0 9.11-3.37z"/><path d="m1108.43 80v59.3q0 5.73 2 7.77c1.32 1.36 3.57 2.05 6.75 2.05v2.88q-2.6-.14-7.71-.34c-3.41-.14-6.88-.21-10.43-.21s-7.14.07-10.77.21-6.37.25-8.18.34v-2.86c3.18 0 5.43-.69 6.75-2.05s2-3.95 2-7.77v-43q0-6.14-1.84-9.07c-1.22-2-3.52-2.93-6.88-2.93v-2.84q4.35.4 8.45.41 5.73 0 10.71-.48a75.7 75.7 0 0 0 9.15-1.41zm-10.64-33.69c3.82 0 6.84.94 9.07 2.8a9.49 9.49 0 0 1 3.34 7.7 9.49 9.49 0 0 1 -3.34 7.71q-3.34 2.79-9.07 2.79c-3.81 0-6.84-.93-9.06-2.79a9.5 9.5 0 0 1 -3.35-7.71 9.49 9.49 0 0 1 3.35-7.7c2.27-1.88 5.27-2.82 9.06-2.82z"/><path d="m1158.2 79.57a39.09 39.09 0 0 1 17.46 3.68 26 26 0 0 1 11.73 11.86q4.21 8.19 4.23 21.69t-4.23 21.61a26.11 26.11 0 0 1 -11.73 11.8 42.76 42.76 0 0 1 -34.71 0 26.38 26.38 0 0 1 -11.86-11.8q-4.29-8.11-4.3-21.61t4.3-21.69a26.27 26.27 0 0 1 11.91-11.86 38.89 38.89 0 0 1 17.2-3.68zm0 2.72q-5.45 0-9.13 8.12t-3.68 26.39q0 18.27 3.68 26.32t9.13 8q5.6 0 9.21-8t3.59-26.32q0-18.28-3.61-26.39t-9.19-8.12z"/><path d="m1250.8 79.57a25.57 25.57 0 0 1 9.34 1.43 13.76 13.76 0 0 1 5.66 3.89 16.33 16.33 0 0 1 3.2 6.68 47.44 47.44 0 0 1 1 11v36.73c0 3.82.65 6.41 2 7.77s3.57 2.05 6.75 2.05v2.88c-1.72-.09-4.32-.2-7.77-.34s-6.86-.21-10.23-.21-6.84.07-10.16.21-5.84.25-7.57.34v-2.86c2.73 0 4.64-.69 5.73-2.05s1.64-3.95 1.64-7.77v-42.43a23.17 23.17 0 0 0 -.68-5.94 7.42 7.42 0 0 0 -2.46-4 8.36 8.36 0 0 0 -5.32-1.43 12.21 12.21 0 0 0 -9.61 4.5 16.7 16.7 0 0 0 -3.89 11.32v37.96q0 5.73 1.71 7.77c1.13 1.36 3 2.05 5.66 2.05v2.88q-2.46-.14-7.16-.34t-9.75-.21c-3.46 0-7 .07-10.64.21s-6.36.25-8.18.34v-2.86c3.18 0 5.43-.69 6.75-2.05s2-3.95 2-7.77v-43c0-4.09-.62-7.11-1.84-9.07s-3.53-2.93-6.89-2.93v-2.84q4.37.4 8.45.41 5.73 0 10.71-.48a75.4 75.4 0 0 0 9.2-1.43v12.27a20.37 20.37 0 0 1 9.28-9.82 29.38 29.38 0 0 1 13.07-2.86z"/><path d="m764.4 220 33.14 85.36c1.27 3.28 2.71 5.53 4.3 6.75a8.31 8.31 0 0 0 4.29 2v2.73c-2.72-.18-5.93-.29-9.61-.34s-7.39-.07-11.11-.07c-4.19 0-8.14 0-11.87.07s-6.68.16-8.86.34v-2.84c4.63-.18 7.57-1 8.79-2.38s.93-4.44-.88-9.07l-23.19-63.37 2.46-3.55-20.73 54q-3.82 10.1-3.75 15.28c0 3.45 1.16 5.79 3.34 7a19.79 19.79 0 0 0 8.73 2.11v2.73c-3-.18-5.87-.29-8.59-.34s-5.5-.07-8.32-.07c-2 0-3.89 0-5.66.07a46.76 46.76 0 0 0 -4.71.34v-2.75a11.42 11.42 0 0 0 5.87-3.68q3-3.14 5.86-10.64l31.1-79.68c1.46.09 3 .13 4.71.13s3.29-.13 4.69-.13zm9.6 57.5v2.72h-40.69l1.37-2.72z"/><path d="m858 244.36a25.08 25.08 0 0 1 9.28 1.43 14.92 14.92 0 0 1 5.72 3.89 15.68 15.68 0 0 1 3.14 6.75 51.24 51.24 0 0 1 .95 11v36.69q0 5.73 1.78 7.77c1.18 1.36 3.22 2.05 6.13 2.05v2.86q-2.44-.13-7.43-.34t-9.75-.21q-4.9 0-9.68.21t-7.23.34v-2.86c2.46 0 4.16-.69 5.12-2.05s1.43-3.95 1.43-7.77v-42.44a28.67 28.67 0 0 0 -.55-5.94 7.24 7.24 0 0 0 -2.11-4 6.82 6.82 0 0 0 -4.71-1.43 11.39 11.39 0 0 0 -6.54 2 14.8 14.8 0 0 0 -4.84 5.66 17.61 17.61 0 0 0 -1.84 8.12v37.91c0 3.82.49 6.41 1.5 7.77s2.68 2.05 5 2.05v2.86q-2.18-.13-6.75-.34t-9.34-.21c-3.46 0-7 .07-10.64.21s-6.36.25-8.18.34v-2.86c3.18 0 5.43-.69 6.75-2.05s2-3.95 2-7.77v-43c0-4.09-.62-7.11-1.84-9.07s-3.53-2.93-6.89-2.93v-2.86q4.37.4 8.46.41 5.72 0 10.7-.48a75.57 75.57 0 0 0 9.21-1.43v12.36a20.52 20.52 0 0 1 8.86-9.75 26.08 26.08 0 0 1 12.29-2.89zm41 0a25 25 0 0 1 9.27 1.43 14.88 14.88 0 0 1 5.73 3.89 15.8 15.8 0 0 1 3.14 6.75 51.24 51.24 0 0 1 1 11v36.69q0 5.73 2 7.77c1.32 1.36 3.57 2.05 6.75 2.05v2.86q-2.6-.13-7.77-.34t-10.23-.21q-4.91 0-9.68.21t-7.23.34v-2.86c2.45 0 4.16-.69 5.11-2.05s1.43-3.95 1.43-7.77v-42.44a25.36 25.36 0 0 0 -.61-5.94 7.18 7.18 0 0 0 -2.32-4 8.07 8.07 0 0 0 -5.25-1.43c-3.54 0-6.64 1.57-9.27 4.7a17.88 17.88 0 0 0 -4.09 11.53l-.68-8.32q3.67-8.19 9.75-11a30.07 30.07 0 0 1 12.95-2.86z"/><path d="m967.59 244.36q12 0 18.82 7.09t6.81 23.18h-44.86l-.27-2.59h27.91a66 66 0 0 0 -.82-12.34 25.92 25.92 0 0 0 -3-9.07 6.16 6.16 0 0 0 -5.45-3.41q-4.78 0-8.12 6t-4 19.91l.41.82c-.09 1.09-.16 2.23-.2 3.41s-.07 2.41-.07 3.68c0 6.27.88 11.37 2.66 15.27a19.3 19.3 0 0 0 6.75 8.53 15.12 15.12 0 0 0 8.32 2.66 23.23 23.23 0 0 0 8.93-2.05q4.83-2 9.07-8.86l2.45.82a35.71 35.71 0 0 1 -5.18 10.09 28.55 28.55 0 0 1 -9 8 25.86 25.86 0 0 1 -13.09 3.14 33 33 0 0 1 -16.37-4 27.1 27.1 0 0 1 -11.11-12q-4-8-4-20.45 0-12.69 4.29-21.14a28.77 28.77 0 0 1 11.87-12.61 35.11 35.11 0 0 1 17.25-4.08z"/><path d="m1047.5 244.36a12.45 12.45 0 0 1 7.1 1.84 11.24 11.24 0 0 1 4 4.7 14.45 14.45 0 0 1 1.29 6 11.7 11.7 0 0 1 -2.93 8.25 9.93 9.93 0 0 1 -7.7 3.21c-3.19 0-5.66-.8-7.44-2.39a8.1 8.1 0 0 1 -2.65-6.34 11.06 11.06 0 0 1 1.7-6.34 16.28 16.28 0 0 1 4.3-4.3 6.17 6.17 0 0 0 -3.82.14 11.23 11.23 0 0 0 -6.34 3.34 21 21 0 0 0 -4.44 6.62 18.91 18.91 0 0 0 -1.63 7.5v36.13q0 6.55 3.2 8.87c2.14 1.54 5.34 2.32 9.62 2.32v2.86c-2.1-.09-5.14-.2-9.14-.34s-8.18-.21-12.55-.21c-3.63 0-7.32.07-11 .21s-6.55.25-8.46.34v-2.86c3.18 0 5.43-.69 6.75-2.05s2-3.95 2-7.77v-43q0-6.13-1.84-9.07c-1.23-1.95-3.52-2.93-6.89-2.93v-2.86q4.36.4 8.46.41c3.82 0 7.38-.16 10.7-.48a75.57 75.57 0 0 0 9.21-1.43v12.68a24.75 24.75 0 0 1 4.36-6.68 20.45 20.45 0 0 1 6.27-4.71 18.13 18.13 0 0 1 7.87-1.66z"/><path d="m1092.64 244.77v59.32q0 5.73 2 7.77c1.32 1.36 3.57 2.05 6.75 2.05v2.86q-2.59-.13-7.7-.34t-10.44-.21c-3.54 0-7.14.07-10.77.21s-6.37.25-8.18.34v-2.86c3.18 0 5.43-.69 6.75-2.05s2-3.95 2-7.77v-43q0-6.13-1.84-9.07c-1.22-1.95-3.52-2.93-6.88-2.93v-2.86c2.91.27 5.72.41 8.45.41q5.73 0 10.71-.48a75.7 75.7 0 0 0 9.15-1.39zm-10.64-33.69c3.82 0 6.84.94 9.07 2.8a10.54 10.54 0 0 1 0 15.41q-3.35 2.79-9.07 2.79c-3.81 0-6.84-.93-9.06-2.79a10.56 10.56 0 0 1 0-15.41c2.22-1.88 5.25-2.8 9.06-2.8z"/><path d="m1142.69 244.36a38.68 38.68 0 0 1 9.75 1.16 26.64 26.64 0 0 1 7.29 2.93 16.42 16.42 0 0 1 5.53 5.39 13.9 13.9 0 0 1 2 7.43 10.76 10.76 0 0 1 -3 7.84 10.41 10.41 0 0 1 -7.77 3.07 10.62 10.62 0 0 1 -7.64-2.73 9.72 9.72 0 0 1 -2.86-7.36 10.31 10.31 0 0 1 2.73-7.3 13.24 13.24 0 0 1 6.27-3.89 8.47 8.47 0 0 0 -3.27-2.31 12.08 12.08 0 0 0 -4.91-1 11.84 11.84 0 0 0 -7.43 2.46 19 19 0 0 0 -5.39 6.81 40 40 0 0 0 -3.34 10.23 66.39 66.39 0 0 0 -1.16 12.82q0 10.5 2.66 16.5t6.82 8.46a16.85 16.85 0 0 0 8.66 2.45 22.52 22.52 0 0 0 8.73-2.11q4.9-2.12 9.13-8.94l2.32.82a36.78 36.78 0 0 1 -4.91 10.09 27 27 0 0 1 -8.86 8.25 26 26 0 0 1 -13.37 3.21 33 33 0 0 1 -16-3.89 28.22 28.22 0 0 1 -11.46-12q-4.29-8.12-4.29-20.93 0-12.27 4.43-20.66a29.92 29.92 0 0 1 12.07-12.61 35.12 35.12 0 0 1 17.27-4.19z"/><path d="m1192.87 317.72q-9.13 0-13.23-4.77a17.23 17.23 0 0 1 -4.09-11.59 16 16 0 0 1 2.66-9.55 21.2 21.2 0 0 1 6.89-6.06 50.81 50.81 0 0 1 8.93-4q4.71-1.56 9-3.14a26.22 26.22 0 0 0 7-3.61 6.27 6.27 0 0 0 2.65-5.18v-10.6a16.47 16.47 0 0 0 -1.15-6.34 9 9 0 0 0 -3.55-4.29 11.51 11.51 0 0 0 -6.21-1.51 20.53 20.53 0 0 0 -5.45.76 10 10 0 0 0 -4.5 2.52 12.44 12.44 0 0 1 5.93 4.16 10.24 10.24 0 0 1 2.12 6.34 9.16 9.16 0 0 1 -3.21 7.36 11.31 11.31 0 0 1 -7.57 2.73q-4.9 0-7.43-3.07a11.31 11.31 0 0 1 -2.52-7.43 10.54 10.54 0 0 1 2-6.55 22.17 22.17 0 0 1 5.53-4.91 33.64 33.64 0 0 1 9.2-3.41 53 53 0 0 1 11.66-1.22 45.75 45.75 0 0 1 11.32 1.29 18.19 18.19 0 0 1 8.46 4.71 15 15 0 0 1 4.09 7.7 58.39 58.39 0 0 1 1 11.53v37.09a11.26 11.26 0 0 0 .68 4.63 2.4 2.4 0 0 0 2.32 1.37 5.3 5.3 0 0 0 2.59-.68 13.56 13.56 0 0 0 2.32-1.64l1.36 2.32a20.11 20.11 0 0 1 -6.61 3.75 25.7 25.7 0 0 1 -8.39 1.29q-8.17 0-10.84-3.34a12.66 12.66 0 0 1 -2.79-7.7 22.64 22.64 0 0 1 -8.39 8.32 24 24 0 0 1 -11.78 2.72zm10.5-8.72a9.92 9.92 0 0 0 4.84-1.23 13.73 13.73 0 0 0 4.43-4.36v-28a13.73 13.73 0 0 1 -4.56 4.57c-2 1.23-4 2.54-6 4a18.19 18.19 0 0 0 -5.12 5.39 16.35 16.35 0 0 0 -2 8.73c0 3.91.81 6.7 2.45 8.38a8 8 0 0 0 5.96 2.52z"/><path d="m1296.24 244.36a25.57 25.57 0 0 1 9.34 1.43 13.7 13.7 0 0 1 5.66 3.89 16.33 16.33 0 0 1 3.2 6.68 47.44 47.44 0 0 1 1 11v36.69c0 3.82.65 6.41 2 7.77s3.57 2.05 6.75 2.05v2.86c-1.72-.09-4.32-.2-7.77-.34s-6.87-.21-10.23-.21-6.84.07-10.16.21-5.84.25-7.57.34v-2.86c2.73 0 4.64-.69 5.73-2.05s1.64-3.95 1.64-7.77v-42.37a23.17 23.17 0 0 0 -.68-5.94 7.42 7.42 0 0 0 -2.46-4 8.36 8.36 0 0 0 -5.32-1.43 12.21 12.21 0 0 0 -9.61 4.5 16.7 16.7 0 0 0 -3.89 11.32v37.91q0 5.73 1.71 7.77c1.13 1.36 3 2.05 5.66 2.05v2.86q-2.46-.13-7.16-.34t-9.75-.21c-3.46 0-7 .07-10.64.21s-6.36.25-8.18.34v-2.86c3.18 0 5.43-.69 6.75-2.05s2-3.95 2-7.77v-43q0-6.13-1.85-9.07c-1.22-1.95-3.52-2.93-6.88-2.93v-2.86q4.37.4 8.45.41 5.73 0 10.71-.48a75.4 75.4 0 0 0 9.2-1.43v12.32a20.37 20.37 0 0 1 9.28-9.82 29.38 29.38 0 0 1 13.07-2.82z"/><path d="m636.49 383.94q8 0 12.41 1.7a47.82 47.82 0 0 1 7.5 3.62c1.09.63 2 1.11 2.66 1.43a4.64 4.64 0 0 0 2 .48q2.18 0 3-6h3.13q-.13 2.59-.34 6.21c-.13 2.41-.23 5.57-.27 9.48s-.07 9-.07 15.41h-3.14a45.37 45.37 0 0 0 -3.27-13.78 28.45 28.45 0 0 0 -7.7-11 18 18 0 0 0 -12.21-4.3 15.81 15.81 0 0 0 -10.77 3.68q-4.23 3.69-4.23 10.23a15.82 15.82 0 0 0 2.73 9.34 32.11 32.11 0 0 0 8 7.57q5.24 3.68 12.75 8.86a130.67 130.67 0 0 1 11.72 8.46 35.74 35.74 0 0 1 8.32 9.54 24.57 24.57 0 0 1 3.14 12.69q0 9-4.71 14.86a28.59 28.59 0 0 1 -12.34 8.8 46.51 46.51 0 0 1 -16.8 2.95 45.06 45.06 0 0 1 -13.5-1.64 54.76 54.76 0 0 1 -8.46-3.41q-3-1.9-4.63-1.91-2.19 0-3 6h-3.14q.27-3.27.34-7.63c0-2.91.09-6.71.14-11.39s.07-10.61.07-17.8h3.13a68.3 68.3 0 0 0 3.05 16.85 28.36 28.36 0 0 0 7.77 12.61q5.25 4.77 14 4.77a18.92 18.92 0 0 0 12-3.82q4.92-3.81 4.91-11.45a18.58 18.58 0 0 0 -5.73-14 99.34 99.34 0 0 0 -14.73-11.35q-6.42-4.23-12-8.46a35.19 35.19 0 0 1 -8.94-9.68 24.32 24.32 0 0 1 -3.34-13q0-8.58 4.3-14.11a25.3 25.3 0 0 1 11.32-8.18 41.65 41.65 0 0 1 14.93-2.63z"/><path d="m716.13 409.85a38.68 38.68 0 0 1 9.75 1.16 26.84 26.84 0 0 1 7.3 2.93 16.48 16.48 0 0 1 5.52 5.39 13.82 13.82 0 0 1 2 7.43 10.8 10.8 0 0 1 -3 7.84 10.45 10.45 0 0 1 -7.78 3.07 10.58 10.58 0 0 1 -7.63-2.73 9.68 9.68 0 0 1 -2.87-7.36 10.31 10.31 0 0 1 2.73-7.3 13.24 13.24 0 0 1 6.27-3.89 8.47 8.47 0 0 0 -3.27-2.31 12.08 12.08 0 0 0 -4.91-1 11.84 11.84 0 0 0 -7.43 2.46 19 19 0 0 0 -5.39 6.81 40.42 40.42 0 0 0 -3.34 10.23 66.39 66.39 0 0 0 -1.16 12.82q0 10.5 2.66 16.5t6.82 8.46a16.85 16.85 0 0 0 8.66 2.45 22.52 22.52 0 0 0 8.73-2.11q4.9-2.12 9.13-8.94l2.32.82a36.78 36.78 0 0 1 -4.91 10.09 27 27 0 0 1 -8.86 8.25 26 26 0 0 1 -13.37 3.21 33 33 0 0 1 -16-3.89 28.15 28.15 0 0 1 -11.45-12q-4.3-8.11-4.3-20.93 0-12.27 4.43-20.66a29.92 29.92 0 0 1 12.07-12.61 35.12 35.12 0 0 1 17.28-4.19z"/><path d="m776.68 410.26v59.32c0 3.82.65 6.41 2 7.77s3.57 2 6.75 2v2.86q-2.58-.13-7.7-.34t-10.43-.21q-5.32 0-10.78.21t-8.18.34v-2.81c3.18 0 5.43-.69 6.75-2s2-4 2-7.77v-43c0-4.09-.62-7.11-1.84-9.07s-3.53-2.93-6.89-2.93v-2.86q4.37.4 8.46.41 5.72 0 10.7-.48a75.57 75.57 0 0 0 9.16-1.44zm-10.68-33.69c3.82 0 6.84.94 9.07 2.8a10.56 10.56 0 0 1 0 15.41q-3.35 2.79-9.07 2.79t-9-2.79a10.56 10.56 0 0 1 0-15.41c2.2-1.86 5.22-2.8 9-2.8z"/><path d="m827.27 409.85q12 0 18.81 7.09t6.82 23.18h-44.9l-.27-2.59h28a66 66 0 0 0 -.82-12.34 25.92 25.92 0 0 0 -3-9.07 6.16 6.16 0 0 0 -5.45-3.41q-4.79 0-8.12 6t-4 19.91l.41.82c-.09 1.09-.16 2.23-.2 3.41s-.07 2.41-.07 3.68c0 6.27.88 11.37 2.66 15.27a19.3 19.3 0 0 0 6.75 8.53 15.12 15.12 0 0 0 8.32 2.66 23.23 23.23 0 0 0 8.93-2.05q4.83-2 9.07-8.86l2.45.82a35.71 35.71 0 0 1 -5.21 10.1 28.55 28.55 0 0 1 -9 8 25.86 25.86 0 0 1 -13.09 3.14 33 33 0 0 1 -16.37-4 27.1 27.1 0 0 1 -11.11-12q-4-8-4-20.45 0-12.69 4.29-21.14a28.77 28.77 0 0 1 11.83-12.55 35.11 35.11 0 0 1 17.27-4.15z"/><path d="m911 409.85a25.57 25.57 0 0 1 9.34 1.43 13.7 13.7 0 0 1 5.66 3.89 16.21 16.21 0 0 1 3.21 6.68 47.52 47.52 0 0 1 1 11v36.69q0 5.73 2 7.77c1.31 1.36 3.56 2 6.75 2v2.86q-2.6-.13-7.78-.34t-10.18-.12c-3.46 0-6.84.07-10.16.21s-5.84.25-7.57.34v-2.86c2.73 0 4.64-.69 5.73-2s1.63-4 1.63-7.77v-42.46a22.73 22.73 0 0 0 -.68-5.94 7.34 7.34 0 0 0 -2.45-4 8.4 8.4 0 0 0 -5.32-1.43 12.23 12.23 0 0 0 -9.62 4.5 16.7 16.7 0 0 0 -3.88 11.32v37.91c0 3.82.56 6.41 1.7 7.77s3 2 5.66 2v2.86q-2.44-.13-7.16-.34c-3.13-.14-6.39-.21-9.75-.21s-7 .07-10.63.21-6.37.25-8.19.34v-2.76c3.18 0 5.43-.69 6.75-2s2-4 2-7.77v-43q0-6.14-1.84-9.07t-6.89-2.93v-2.86q4.37.4 8.46.41c3.82 0 7.38-.16 10.7-.48a75.57 75.57 0 0 0 9.21-1.43v12.27a20.36 20.36 0 0 1 9.27-9.82 29.41 29.41 0 0 1 13.03-2.87z"/><path d="m971.68 389.39v22.37h16.09v2.72h-16.09v55.1c0 2.72.5 4.66 1.5 5.79a5.67 5.67 0 0 0 4.5 1.71 8.23 8.23 0 0 0 4.91-1.84 15.21 15.21 0 0 0 4.41-6.34l2.32 1.22a24 24 0 0 1 -6.62 10.09q-4.42 4-12.06 4a24.63 24.63 0 0 1 -7.91-1.16 14.44 14.44 0 0 1 -5.73-3.48 14.61 14.61 0 0 1 -4-7.43 57 57 0 0 1 -1-11.52v-46.1h-11.42v-2.72h11.42v-18a50.61 50.61 0 0 0 10.57-1 32.8 32.8 0 0 0 9.11-3.41z"/><path d="m1020.36 410.26v59.32q0 5.73 2 7.77c1.31 1.36 3.56 2 6.75 2v2.86q-2.6-.13-7.71-.34c-3.41-.14-6.88-.21-10.43-.21s-7.14.07-10.77.21-6.37.25-8.18.34v-2.81c3.18 0 5.43-.69 6.75-2s2-4 2-7.77v-43q0-6.14-1.84-9.07t-6.93-2.94v-2.86q4.35.4 8.45.41c3.82 0 7.38-.16 10.71-.48a75.7 75.7 0 0 0 9.2-1.43zm-10.64-33.69c3.82 0 6.84.94 9.07 2.8a10.56 10.56 0 0 1 0 15.41q-3.35 2.79-9.07 2.79t-9.07-2.79a10.56 10.56 0 0 1 0-15.41c2.23-1.86 5.25-2.8 9.07-2.8z"/><path d="m1062 409.85a31.53 31.53 0 0 1 10 1.43 24.54 24.54 0 0 1 6.21 2.8q4.63 3.14 5.73-4.1h2.86c-.18 2.55-.32 5.66-.41 9.35s-.14 8.56-.14 14.65h-2.86a43.84 43.84 0 0 0 -2.59-10 20.21 20.21 0 0 0 -5.52-8 13.75 13.75 0 0 0 -9.34-3.13 10.17 10.17 0 0 0 -6.69 2.25 7.91 7.91 0 0 0 -2.72 6.48 11.08 11.08 0 0 0 2.45 7.15 31.78 31.78 0 0 0 6.34 5.87q3.89 2.79 8.12 5.93a82.24 82.24 0 0 1 11.52 10.16q4.71 5.12 4.7 13.3a17 17 0 0 1 -3.54 10.7 22.78 22.78 0 0 1 -9.34 7 32.69 32.69 0 0 1 -12.89 2.46 29.4 29.4 0 0 1 -7.3-.82 24.89 24.89 0 0 1 -5.52-2.05c-1.18-.54-2.3-1.06-3.34-1.56s-2-.93-2.93-1.3a2.09 2.09 0 0 0 -2.39 1 10.1 10.1 0 0 0 -1.57 3.81h-2.84c.18-2.9.32-6.45.41-10.63s.14-9.73.14-16.64h2.86a51.72 51.72 0 0 0 3 13 21.54 21.54 0 0 0 5.93 8.87 14.11 14.11 0 0 0 9.48 3.2 10.67 10.67 0 0 0 6.54-2.25c2-1.5 3-4 3-7.43a13.6 13.6 0 0 0 -3.88-10 98.55 98.55 0 0 0 -9.89-8.6q-4.36-3.54-8.25-7a32.24 32.24 0 0 1 -6.34-7.64 18.23 18.23 0 0 1 -2.45-9.47 16.45 16.45 0 0 1 3.27-10.37 19.87 19.87 0 0 1 8.66-6.34 31.22 31.22 0 0 1 11.52-2.08z"/><path d="m1125.63 389.39v22.37h16.1v2.72h-16.1v55.1c0 2.72.5 4.66 1.5 5.79a5.67 5.67 0 0 0 4.5 1.71 8.19 8.19 0 0 0 4.91-1.84 15.22 15.22 0 0 0 4.37-6.34l2.32 1.22a24 24 0 0 1 -6.62 10.09q-4.42 4-12.07 4a24.68 24.68 0 0 1 -7.91-1.16 14.31 14.31 0 0 1 -9.63-10.95 56.31 56.31 0 0 1 -1-11.52v-46.1h-11.46v-2.72h11.46v-18a50.61 50.61 0 0 0 10.57-1 32.62 32.62 0 0 0 9.06-3.37z"/><path d="m1173 409.85a31.64 31.64 0 0 1 10 1.43 24.43 24.43 0 0 1 6.2 2.8q4.63 3.14 5.73-4.1h2.86c-.18 2.55-.32 5.66-.41 9.35s-.13 8.56-.13 14.65h-2.87a43.32 43.32 0 0 0 -2.59-10 20.11 20.11 0 0 0 -5.52-8 13.73 13.73 0 0 0 -9.34-3.13 10.13 10.13 0 0 0 -6.68 2.25 7.92 7.92 0 0 0 -2.73 6.48 11.13 11.13 0 0 0 2.45 7.15 31.78 31.78 0 0 0 6.34 5.87q3.89 2.79 8.12 5.93a82.24 82.24 0 0 1 11.52 10.16q4.71 5.12 4.71 13.3a17 17 0 0 1 -3.55 10.7 22.72 22.72 0 0 1 -9.34 7 32.69 32.69 0 0 1 -12.89 2.46 29.26 29.26 0 0 1 -7.29-.82 24.8 24.8 0 0 1 -5.53-2.05c-1.18-.54-2.29-1.06-3.34-1.56s-2-.93-2.93-1.3a2.09 2.09 0 0 0 -2.39 1 9.94 9.94 0 0 0 -1.56 3.81h-2.84c.18-2.9.32-6.45.41-10.63s.14-9.73.14-16.64h2.86a52.6 52.6 0 0 0 3 13 21.54 21.54 0 0 0 5.93 8.87 14.11 14.11 0 0 0 9.48 3.2 10.7 10.7 0 0 0 6.55-2.25c2-1.5 3-4 3-7.43a13.61 13.61 0 0 0 -3.89-10 98.55 98.55 0 0 0 -9.89-8.6q-4.36-3.54-8.25-7a32.24 32.24 0 0 1 -6.34-7.64 18.33 18.33 0 0 1 -2.45-9.47 16.45 16.45 0 0 1 3.27-10.37 19.92 19.92 0 0 1 8.66-6.34 31.22 31.22 0 0 1 11.52-2.08z"/><path d="m600.2 301.47a49.33 49.33 0 0 1 2.11-13.47 56.9 56.9 0 0 1 6.16-14 36.56 36.56 0 0 1 10-10.94 23.14 23.14 0 0 1 13.76-4.27q6.88 0 11 4.27t4.17 13.16a49.77 49.77 0 0 1 -2.11 13.49 57.28 57.28 0 0 1 -6.16 14 36.52 36.52 0 0 1 -10.05 10.93 23.08 23.08 0 0 1 -13.76 4.27q-6.88 0-11-4.33t-4.12-13.11zm31.41-40.47a10.37 10.37 0 0 0 -6.82 2.83 28.49 28.49 0 0 0 -6 7.66 65.41 65.41 0 0 0 -4.79 10.77 80.64 80.64 0 0 0 -3.16 12.44 72.55 72.55 0 0 0 -1.09 12.3c0 3.33.53 5.77 1.61 7.32a5.34 5.34 0 0 0 4.71 2.33 10.33 10.33 0 0 0 6.83-2.83 29.23 29.23 0 0 0 6.05-7.66 58.75 58.75 0 0 0 4.77-10.82 84.16 84.16 0 0 0 3.11-12.34 72.34 72.34 0 0 0 1.11-12.38q0-5.1-1.55-7.38a5.39 5.39 0 0 0 -4.78-2.24z"/><path d="m695.22 232.2a7.31 7.31 0 0 0 -3.67.89 15.58 15.58 0 0 0 -2.77 2q-3 2.78-4.89 9.82t-4.1 15.26l-20.54 76.48c-1.77.08-3.51.23-5.21.45a23.37 23.37 0 0 0 -4.78 1.11l20.87-78a94.41 94.41 0 0 1 4.94-14.65 30.58 30.58 0 0 1 6.38-9.43 18.54 18.54 0 0 1 6.27-4.05 20.19 20.19 0 0 1 7.61-1.5q5.1 0 7.82 2.27a7.06 7.06 0 0 1 2.72 5.61 7.85 7.85 0 0 1 -2.11 5.22 6.75 6.75 0 0 1 -5.33 2.44 5.11 5.11 0 0 1 -3.33-1 3.11 3.11 0 0 1 -1.1-2.78 6.74 6.74 0 0 1 1.77-4.71 9.43 9.43 0 0 1 4.55-2.72q0-1-1.44-1.83a7.18 7.18 0 0 0 -3.66-.88zm-35.75 30.31.67-2.22h32.74l-.66 2.22z"/></svg>